<svg width="98" height="98" viewBox="0 0 98 98" fill="none" xmlns="http://www.w3.org/2000/svg">
<g filter="url(#filter0_b_15_1576)">
<rect x="1" y="1" width="96" height="96" rx="16" fill="url(#paint0_radial_15_1576)" fill-opacity="0.2"/>
<rect x="1" y="1" width="96" height="96" rx="16" stroke="url(#paint1_linear_15_1576)"/>
</g>
<path d="M64.3573 33.2856C59.9371 28.8655 57.7271 26.6554 57.7271 23.909C57.7271 21.1627 59.9371 18.9526 64.3573 14.5324L64.7141 14.1757C69.1343 9.7555 71.3443 7.54541 74.0907 7.54541C76.837 7.54541 79.0471 9.7555 83.4673 14.1757L83.8241 14.5324C88.2442 18.9526 90.4543 21.1627 90.4543 23.909C90.4543 26.6554 88.2442 28.8655 83.8241 33.2856L83.4673 33.6424C79.0471 38.0626 76.837 40.2727 74.0907 40.2727C71.3443 40.2727 69.1343 38.0626 64.7141 33.6424L64.3573 33.2856Z" fill="url(#paint2_linear_15_1576)"/>
<g filter="url(#filter1_b_15_1576)">
<path fill-rule="evenodd" clip-rule="evenodd" d="M48.1223 14.1132C48.7072 14.0832 49.2931 14.0832 49.8779 14.1132C52.1356 14.229 54.2142 14.9067 56.5313 16.0175C58.787 17.0989 61.4081 18.6622 64.7242 20.6401L64.9122 20.7522C68.2284 22.7301 70.8496 24.2934 72.884 25.7709C74.9738 27.2885 76.5812 28.8092 77.8071 30.7712C78.1247 31.2794 78.4177 31.8036 78.6849 32.3418C79.7167 34.4196 80.1879 36.618 80.4152 39.2464C80.6365 41.8052 80.6365 44.9319 80.6365 48.8876V49.1118C80.6365 53.0674 80.6365 56.1944 80.4152 58.7531C80.1879 61.3816 79.7167 63.58 78.6849 65.6578C78.4177 66.196 78.1247 66.7202 77.8071 67.2284C76.5812 69.1904 74.9738 70.7111 72.884 72.2287C70.8496 73.7061 68.2284 75.2695 64.9122 77.2474L64.7245 77.3593C61.4083 79.3373 58.7871 80.9007 56.5313 81.9821C54.2142 83.0929 52.1356 83.7706 49.8779 83.8864C49.2931 83.9164 48.7072 83.9164 48.1223 83.8864C45.8646 83.7706 43.7861 83.0929 41.469 81.9821C39.2133 80.9007 36.5921 79.3373 33.276 77.3595L33.0879 77.2472C29.772 75.2696 27.1505 73.706 25.1162 72.2287C23.0265 70.7111 21.4191 69.1904 20.1931 67.2284C19.8756 66.7202 19.5826 66.196 19.3153 65.6578C18.2836 63.58 17.8124 61.3816 17.5851 58.7532C17.3637 56.1943 17.3638 53.0676 17.3638 49.1118V48.8878C17.3638 44.932 17.3637 41.8053 17.5851 39.2464C17.8124 36.618 18.2836 34.4196 19.3153 32.3418C19.5826 31.8036 19.8756 31.2794 20.1931 30.7712C21.419 28.8092 23.0265 27.2885 25.1162 25.7709C27.1507 24.2935 29.7719 22.7301 33.088 20.7522L33.2758 20.6402C36.592 18.6623 39.2132 17.0989 41.469 16.0175C43.7861 14.9067 45.8646 14.229 48.1223 14.1132Z" fill="url(#paint3_linear_15_1576)" fill-opacity="0.15"/>
<path fill-rule="evenodd" clip-rule="evenodd" d="M48.1223 14.1132C48.7072 14.0832 49.2931 14.0832 49.8779 14.1132C52.1356 14.229 54.2142 14.9067 56.5313 16.0175C58.787 17.0989 61.4081 18.6622 64.7242 20.6401L64.9122 20.7522C68.2284 22.7301 70.8496 24.2934 72.884 25.7709C74.9738 27.2885 76.5812 28.8092 77.8071 30.7712C78.1247 31.2794 78.4177 31.8036 78.6849 32.3418C79.7167 34.4196 80.1879 36.618 80.4152 39.2464C80.6365 41.8052 80.6365 44.9319 80.6365 48.8876V49.1118C80.6365 53.0674 80.6365 56.1944 80.4152 58.7531C80.1879 61.3816 79.7167 63.58 78.6849 65.6578C78.4177 66.196 78.1247 66.7202 77.8071 67.2284C76.5812 69.1904 74.9738 70.7111 72.884 72.2287C70.8496 73.7061 68.2284 75.2695 64.9122 77.2474L64.7245 77.3593C61.4083 79.3373 58.7871 80.9007 56.5313 81.9821C54.2142 83.0929 52.1356 83.7706 49.8779 83.8864C49.2931 83.9164 48.7072 83.9164 48.1223 83.8864C45.8646 83.7706 43.7861 83.0929 41.469 81.9821C39.2133 80.9007 36.5921 79.3373 33.276 77.3595L33.0879 77.2472C29.772 75.2696 27.1505 73.706 25.1162 72.2287C23.0265 70.7111 21.4191 69.1904 20.1931 67.2284C19.8756 66.7202 19.5826 66.196 19.3153 65.6578C18.2836 63.58 17.8124 61.3816 17.5851 58.7532C17.3637 56.1943 17.3638 53.0676 17.3638 49.1118V48.8878C17.3638 44.932 17.3637 41.8053 17.5851 39.2464C17.8124 36.618 18.2836 34.4196 19.3153 32.3418C19.5826 31.8036 19.8756 31.2794 20.1931 30.7712C21.419 28.8092 23.0265 27.2885 25.1162 25.7709C27.1507 24.2935 29.7719 22.7301 33.088 20.7522L33.2758 20.6402C36.592 18.6623 39.2132 17.0989 41.469 16.0175C43.7861 14.9067 45.8646 14.229 48.1223 14.1132Z" stroke="url(#paint4_linear_15_1576)"/>
</g>
<path d="M55.6543 29.3639H42.3452C39.9964 29.3665 38.0932 31.2352 38.0908 33.5413V64.4596C38.0931 66.7657 39.9965 68.6343 42.3452 68.6366H55.6543C58.0031 68.6344 59.9063 66.7656 59.909 64.4596V33.5413C59.9064 31.2352 58.0031 29.3666 55.6543 29.3639ZM48.9999 65.0666C47.9955 65.0666 47.1815 64.2675 47.1815 63.2812C47.1815 62.2954 47.9954 61.4962 48.9999 61.4962C50.004 61.4962 50.818 62.2953 50.818 63.2812C50.818 64.2674 50.0041 65.0666 48.9999 65.0666ZM51.7272 34.7193H46.2726C45.7706 34.7193 45.3634 34.3195 45.3634 33.8266C45.3634 33.3337 45.7706 32.9343 46.2726 32.9343H51.7272C52.2292 32.9343 52.636 33.3337 52.636 33.8266C52.636 34.3195 52.2293 34.7193 51.7272 34.7193Z" fill="url(#paint5_linear_15_1576)"/>
<defs>
<filter id="filter0_b_15_1576" x="-23.5" y="-23.5" width="145" height="145" filterUnits="userSpaceOnUse" color-interpolation-filters="sRGB">
<feFlood flood-opacity="0" result="BackgroundImageFix"/>
<feGaussianBlur in="BackgroundImageFix" stdDeviation="12"/>
<feComposite in2="SourceAlpha" operator="in" result="effect1_backgroundBlur_15_1576"/>
<feBlend mode="normal" in="SourceGraphic" in2="effect1_backgroundBlur_15_1576" result="shape"/>
</filter>
<filter id="filter1_b_15_1576" x="6.86377" y="3.5907" width="84.2729" height="90.8182" filterUnits="userSpaceOnUse" color-interpolation-filters="sRGB">
<feFlood flood-opacity="0" result="BackgroundImageFix"/>
<feGaussianBlur in="BackgroundImageFix" stdDeviation="5"/>
<feComposite in2="SourceAlpha" operator="in" result="effect1_backgroundBlur_15_1576"/>
<feBlend mode="normal" in="SourceGraphic" in2="effect1_backgroundBlur_15_1576" result="shape"/>
</filter>
<radialGradient id="paint0_radial_15_1576" cx="0" cy="0" r="1" gradientUnits="userSpaceOnUse" gradientTransform="translate(1 1) rotate(45) scale(135.765)">
<stop stop-color="#FAFAFA"/>
<stop offset="1" stop-color="#F7F7F7" stop-opacity="0"/>
</radialGradient>
<linearGradient id="paint1_linear_15_1576" x1="49" y1="1" x2="49" y2="97" gradientUnits="userSpaceOnUse">
<stop stop-color="white"/>
<stop offset="1" stop-color="white" stop-opacity="0"/>
</linearGradient>
<linearGradient id="paint2_linear_15_1576" x1="74.0907" y1="7.54541" x2="62.6361" y2="32.4181" gradientUnits="userSpaceOnUse">
<stop stop-color="#E31235"/>
<stop offset="1" stop-color="#7E1325"/>
</linearGradient>
<linearGradient id="paint3_linear_15_1576" x1="74.3092" y1="22.6837" x2="21.6743" y2="72.8178" gradientUnits="userSpaceOnUse">
<stop stop-color="#E31235"/>
<stop offset="1" stop-color="#751425" stop-opacity="0.65"/>
</linearGradient>
<linearGradient id="paint4_linear_15_1576" x1="17.3638" y1="14.0907" x2="86.8733" y2="77.0199" gradientUnits="userSpaceOnUse">
<stop stop-color="white" stop-opacity="0.25"/>
<stop offset="1" stop-color="white" stop-opacity="0"/>
</linearGradient>
<linearGradient id="paint5_linear_15_1576" x1="49.1836" y1="77.0034" x2="94.7248" y2="52.2025" gradientUnits="userSpaceOnUse">
<stop stop-color="white"/>
<stop offset="1" stop-color="white" stop-opacity="0.2"/>
</linearGradient>
</defs>
</svg>
