<svg width="465" height="290" viewBox="0 0 465 290" fill="none" xmlns="http://www.w3.org/2000/svg">
<g clip-path="url(#clip0_15_1454)">
<path d="M450.716 0H14.2838C6.39506 0 0 7.20357 0 16.0896V273.91C0 282.796 6.39506 290 14.2838 290H450.716C458.605 290 465 282.796 465 273.91V16.0896C465 7.20357 458.605 0 450.716 0Z" fill="#E31235"/>
<path d="M34.0351 102.226H29V87.5703H37.6577V89.0268H30.7543V93.7604H34.0124C36.9742 93.7604 38.8424 94.9893 38.8424 97.925V98.016C38.8424 100.792 36.9514 102.226 34.0124 102.226H34.0351ZM33.9896 100.838C36.1312 100.838 37.1109 99.7911 37.1109 98.016V97.925C37.1109 96.1272 36.1084 95.1486 33.8301 95.1486H30.7543V100.815H33.9896V100.838Z" fill="white"/>
<path d="M41.2349 96.9691V96.8098C41.2349 93.601 43.4676 91.348 46.4978 91.348C49.528 91.348 51.7608 93.5783 51.7608 96.8098V96.9691C51.7608 100.201 49.528 102.431 46.4751 102.431C43.4221 102.431 41.2349 100.11 41.2349 96.9919V96.9691ZM50.0065 96.9691V96.8326C50.0065 94.352 48.6395 92.759 46.4978 92.759C44.3562 92.759 42.9892 94.352 42.9892 96.8098V96.9691C42.9892 99.4042 44.3106 100.997 46.4978 100.997C48.685 100.997 50.0065 99.3815 50.0065 96.9691Z" fill="white"/>
<path d="M61.7168 97.4471H56.4539V102.226H54.7451V91.5073H56.4539V96.0133H61.7168V91.5073H63.4256V102.226H61.7168V97.4471Z" fill="white"/>
<path d="M70.1241 101.111L65.9092 91.5073H67.7319L71.0127 99.1994L73.9973 91.5073H75.7288L69.8052 105.958H68.0736L70.1013 101.134L70.1241 101.111Z" fill="white"/>
<path d="M77.1187 96.9919V96.8326C77.1187 93.5555 79.4653 91.348 82.3361 91.348C84.5688 91.348 86.6649 92.3721 86.9839 95.103H85.2979C85.0245 93.3962 83.7942 92.759 82.3133 92.759C80.3767 92.759 78.873 94.3065 78.873 96.8326V96.9919C78.873 99.609 80.3083 100.997 82.3816 100.997C83.9081 100.997 85.2751 100.11 85.4574 98.3801H87.0294C86.8016 100.701 84.9334 102.408 82.3588 102.408C79.3742 102.408 77.1187 100.292 77.1187 96.9691V96.9919Z" fill="white"/>
<path d="M96.8946 97.4471H91.6316V102.226H89.9229V91.5073H91.6316V96.0133H96.8946V91.5073H98.6033V102.226H96.8946V97.4471Z" fill="white"/>
<path d="M102.249 91.5073H103.957V95.2623H105.871C108.104 95.2623 109.972 96.1726 109.972 98.6532V98.7215C109.972 101.179 108.127 102.226 105.871 102.226H102.271V91.5073H102.249ZM105.962 100.861C107.557 100.861 108.263 100.155 108.263 98.6987V98.6304C108.263 97.3105 107.648 96.5595 105.962 96.5595H103.957V100.838H105.962V100.861ZM111.476 91.5073H113.185V102.226H111.476V91.5073Z" fill="white"/>
<path d="M119.564 96.7188L115.964 91.5073H117.946L120.567 95.3989L123.164 91.5073H125.009L121.455 96.5823L125.374 102.226H123.369L120.475 97.9022L117.514 102.226H115.691L119.519 96.7188H119.564Z" fill="white"/>
<path d="M133.143 91.5074H134.852V93.3052C135.467 92.2584 136.925 91.3253 138.474 91.3253C141.277 91.3253 143.35 93.3735 143.35 96.7189V96.8782C143.35 100.155 141.413 102.408 138.474 102.408C136.72 102.408 135.467 101.521 134.852 100.451V105.936H133.143V91.4846V91.5074ZM141.596 96.9692V96.8099C141.596 94.1017 140.092 92.759 138.292 92.759C136.31 92.759 134.783 94.079 134.783 96.8099V96.9692C134.783 99.7229 136.219 100.997 138.315 100.997C140.411 100.997 141.596 99.5636 141.596 96.9692Z" fill="white"/>
<path d="M148.955 101.111L144.74 91.5073H146.562L149.843 99.1994L152.828 91.5073H154.559L148.636 105.958H146.904L148.932 101.134L148.955 101.111Z" fill="white"/>
<path d="M156.633 96.1271V95.2623C156.633 91.0522 157.499 86.7282 162.625 86.4552H163.035C164.493 86.3641 165.541 86.2958 166.316 86V87.4792C165.587 87.7751 164.721 87.8661 163.058 87.9799H162.762C159.298 88.2302 158.228 90.4377 157.977 94.0107H158.068C158.797 92.4176 160.301 91.348 162.283 91.348C165.268 91.348 167.204 93.601 167.204 96.7416V96.8326C167.204 100.337 164.949 102.454 161.919 102.454C158.888 102.454 156.678 100.337 156.678 96.1726L156.633 96.1271ZM165.404 96.8326V96.7871C165.404 94.2382 164.265 92.759 162.078 92.759C159.891 92.759 158.387 94.3293 158.387 96.9464V96.9919C158.387 99.4042 159.731 101.02 161.896 101.02C164.06 101.02 165.404 99.4953 165.404 96.8326Z" fill="white"/>
<path d="M169.414 102.34C168.89 102.34 168.685 102.249 168.685 102.249V100.633C168.685 100.633 168.867 100.724 169.255 100.724C170.143 100.724 170.348 99.518 170.485 98.016C170.736 95.5127 170.781 91.5529 170.781 91.5529H177.867V102.272H176.158V92.9866H172.308C172.262 94.3976 172.194 96.5595 172.034 98.1298C171.784 100.952 171.123 102.363 169.391 102.363L169.414 102.34Z" fill="white"/>
<path d="M180.874 96.9919V96.8326C180.874 93.601 182.947 91.348 185.909 91.348C188.393 91.348 190.739 92.85 190.739 96.6733V97.2195H182.651C182.742 99.6545 183.904 101.02 186.091 101.02C187.755 101.02 188.712 100.406 188.939 99.1539H190.648C190.284 101.316 188.484 102.431 186.069 102.431C183.038 102.431 180.874 100.292 180.874 96.9919ZM188.985 95.854C188.825 93.6465 187.663 92.759 185.909 92.759C184.155 92.759 182.993 93.9424 182.719 95.854H188.985Z" fill="white"/>
<path d="M193.724 102.226V91.5073H195.433V99.7683L200.901 91.5073H202.61V102.226H200.901V93.9652L195.433 102.226H193.724ZM195.433 86.842H196.914C196.982 87.6386 197.324 88.3668 198.144 88.3668C199.01 88.3668 199.42 87.6613 199.488 86.842H200.924C200.833 88.3896 199.602 89.5502 198.144 89.5502C196.686 89.5502 195.524 88.4123 195.433 86.842Z" fill="white"/>
<path d="M28.9451 57.2293H36.2933C36.9523 61.1461 38.534 63.878 44.004 63.878C48.8808 63.878 51.6488 60.4878 51.6488 55.2873C51.6488 50.0869 48.6831 46.9271 44.004 46.9271C39.6873 46.9271 37.0512 48.4082 35.1729 50.6135H31.1528L31.5153 27.0139H57.2506V33.2347H37.5455L37.4796 44.7218C39.1271 42.8128 42.0928 41.1671 46.6072 41.1671C54.252 41.1671 59.6561 46.4992 59.6561 55.3861C59.6561 64.273 53.1975 69.9672 44.0369 69.9672C34.0855 69.9672 29.3734 64.5034 28.9121 57.2293H28.9451Z" fill="white"/>
<path d="M65.126 49.2969V47.1574C65.126 34.2879 72.2435 26.4214 82.9199 26.4214C93.5962 26.4214 100.648 34.255 100.648 46.9929V49.1323C100.648 61.8701 93.9917 70 82.9199 70C71.8481 70 65.126 62.0676 65.126 49.3298V49.2969ZM92.7725 49.1323V47.0587C92.7725 38.0402 89.3455 32.6093 82.9858 32.6093C76.6261 32.6093 73.0673 37.711 73.0673 47.1245V49.2639C73.0673 58.8749 76.7579 63.7134 83.0847 63.7134C89.4114 63.7134 92.7395 58.7433 92.7395 49.1323H92.7725Z" fill="white"/>
<path d="M106.843 49.2969V47.1574C106.843 34.2879 113.96 26.4214 124.637 26.4214C135.313 26.4214 142.365 34.255 142.365 46.9929V49.1323C142.365 61.8701 135.708 70 124.637 70C113.565 70 106.843 62.0676 106.843 49.3298V49.2969ZM134.489 49.1323V47.0587C134.489 38.0402 131.062 32.6093 124.703 32.6093C118.343 32.6093 114.784 37.711 114.784 47.1245V49.2639C114.784 58.8749 118.475 63.7134 124.801 63.7134C131.128 63.7134 134.456 58.7433 134.456 49.1323H134.489Z" fill="white"/>
<path d="M149.083 49.2969V47.1574C149.083 34.2879 156.2 26.4214 166.876 26.4214C177.553 26.4214 184.604 34.255 184.604 46.9929V49.1323C184.604 61.8701 177.948 70 166.876 70C155.805 70 149.083 62.0676 149.083 49.3298V49.2969ZM176.729 49.1323V47.0587C176.729 38.0402 173.302 32.6093 166.942 32.6093C160.583 32.6093 157.024 37.711 157.024 47.1245V49.2639C157.024 58.8749 160.714 63.7134 167.041 63.7134C173.368 63.7134 176.696 58.7433 176.696 49.1323H176.729Z" fill="white"/>
</g>
<defs>
<clipPath id="clip0_15_1454">
<rect width="465" height="290" fill="white"/>
</clipPath>
</defs>
</svg>
