<svg width="77" height="77" viewBox="0 0 77 77" fill="none" xmlns="http://www.w3.org/2000/svg">
<rect y="-0.000793457" width="77" height="77" rx="38.5" fill="white"/>
<path d="M28.7295 38.7542C24.6054 38.7542 21.415 35.6614 21.415 31.614C21.415 27.5666 24.6054 24.4738 28.7295 24.4738C32.8536 24.4738 36.0439 27.5666 36.0439 31.614C36.0439 35.6614 32.8536 38.7542 28.7295 38.7542ZM26.434 52.0419L46.3541 24.932H50.984L31.0639 52.0419H26.434ZM28.7295 35.1269C30.7526 35.1269 32.1532 33.5995 32.1532 31.614C32.1532 29.6667 30.7526 28.1394 28.7295 28.1394C26.7063 28.1394 25.3446 29.6667 25.3446 31.614C25.3446 33.5995 26.7063 35.1269 28.7295 35.1269ZM48.6885 52.5765C44.5644 52.5765 41.3741 49.4837 41.3741 45.4363C41.3741 41.3889 44.5644 38.2961 48.6885 38.2961C52.8126 38.2961 56.0029 41.3889 56.0029 45.4363C56.0029 49.4837 52.8126 52.5765 48.6885 52.5765ZM48.6885 48.9109C50.7117 48.9109 52.1123 47.3836 52.1123 45.4363C52.1123 43.4508 50.7117 41.9234 48.6885 41.9234C46.7043 41.9234 45.3036 43.4508 45.3036 45.4363C45.3036 47.3836 46.7043 48.9109 48.6885 48.9109Z" fill="#E31235"/>
</svg>
