<svg width="32" height="32" viewBox="0 0 32 32" fill="none" xmlns="http://www.w3.org/2000/svg">
<circle cx="16" cy="16" r="16" fill="#E31235"/>
<path d="M10.0332 12.8625V12.1684C10.0332 11.6696 10.1414 11.2159 10.3577 10.8072C10.5741 10.3986 10.8896 10.0711 11.3042 9.82467C11.7189 9.57828 12.2177 9.45508 12.8006 9.45508C13.4016 9.45508 13.9064 9.57828 14.3151 9.82467C14.7297 10.0711 15.0452 10.3986 15.2616 10.8072C15.4779 11.2159 15.5861 11.6696 15.5861 12.1684V12.8625C15.5861 13.3493 15.4779 13.797 15.2616 14.2057C15.0512 14.6143 14.7387 14.9419 14.3241 15.1883C13.9154 15.4346 13.4136 15.5578 12.8187 15.5578C12.2297 15.5578 11.7249 15.4346 11.3042 15.1883C10.8896 14.9419 10.5741 14.6143 10.3577 14.2057C10.1414 13.797 10.0332 13.3493 10.0332 12.8625ZM11.5386 12.1684V12.8625C11.5386 13.1029 11.5837 13.3313 11.6738 13.5476C11.77 13.764 11.9142 13.9383 12.1065 14.0705C12.2988 14.2027 12.5362 14.2688 12.8187 14.2688C13.1071 14.2688 13.3415 14.2027 13.5218 14.0705C13.7081 13.9383 13.8463 13.764 13.9364 13.5476C14.0266 13.3313 14.0717 13.1029 14.0717 12.8625V12.1684C14.0717 11.922 14.0236 11.6907 13.9274 11.4743C13.8373 11.252 13.6991 11.0747 13.5128 10.9425C13.3265 10.8102 13.0891 10.7441 12.8006 10.7441C12.5242 10.7441 12.2898 10.8102 12.0975 10.9425C11.9112 11.0747 11.77 11.252 11.6738 11.4743C11.5837 11.6907 11.5386 11.922 11.5386 12.1684ZM16.3613 20.2544V19.5512C16.3613 19.0584 16.4695 18.6077 16.6858 18.1991C16.9082 17.7904 17.2267 17.4629 17.6414 17.2165C18.056 16.9701 18.5548 16.8469 19.1378 16.8469C19.7387 16.8469 20.2435 16.9701 20.6522 17.2165C21.0669 17.4629 21.3794 17.7904 21.5897 18.1991C21.806 18.6077 21.9142 19.0584 21.9142 19.5512V20.2544C21.9142 20.7471 21.806 21.1979 21.5897 21.6065C21.3794 22.0152 21.0699 22.3427 20.6612 22.5891C20.2526 22.8355 19.7538 22.9587 19.1648 22.9587C18.5699 22.9587 18.062 22.8355 17.6414 22.5891C17.2267 22.3427 16.9082 22.0152 16.6858 21.6065C16.4695 21.1979 16.3613 20.7471 16.3613 20.2544ZM17.8758 19.5512V20.2544C17.8758 20.4947 17.9238 20.7231 18.02 20.9395C18.1221 21.1558 18.2694 21.3331 18.4617 21.4713C18.654 21.6035 18.8854 21.6696 19.1558 21.6696C19.4623 21.6696 19.7087 21.6035 19.895 21.4713C20.0813 21.3331 20.2135 21.1588 20.2916 20.9485C20.3758 20.7321 20.4178 20.5008 20.4178 20.2544V19.5512C20.4178 19.3048 20.3697 19.0735 20.2736 18.8571C20.1834 18.6408 20.0422 18.4665 19.8499 18.3343C19.6636 18.2021 19.4262 18.136 19.1378 18.136C18.8553 18.136 18.6209 18.2021 18.4346 18.3343C18.2483 18.4665 18.1071 18.6408 18.011 18.8571C17.9208 19.0735 17.8758 19.3048 17.8758 19.5512ZM19.6786 11.5194L13.2694 21.7778L12.1606 21.1378L18.5699 10.8794L19.6786 11.5194Z" fill="#F5F5F6"/>
</svg>
