<svg width="71" height="71" viewBox="0 0 71 71" fill="none" xmlns="http://www.w3.org/2000/svg">
<rect x="0.213867" y="0.15448" width="70.3644" height="70" rx="35" fill="#333333"/>
<path d="M29.4301 37.7413V28.9761H24.8105L24.627 31.1978C24.2904 34.6065 23.9845 36.4326 23.2197 37.7413H29.4301ZM21.2923 45.5935H17.8047V37.7413H19.4873C20.3439 36.4326 20.864 34.5457 21.1393 30.9848L21.5677 25.6587H33.3154V37.7413H36.0076V45.5935H32.5506V41.0587H21.2923V45.5935Z" fill="white"/>
<path d="M45.5855 25.2631C50.1133 25.2631 53.2032 28.5805 53.2032 33.3587C53.2032 38.0761 50.1133 41.4544 45.5855 41.4544C41.0883 41.4544 37.9984 38.0761 37.9984 33.3587C37.9984 28.5805 41.0883 25.2631 45.5855 25.2631ZM45.5855 38.0457C47.9717 38.0457 49.2261 36.0065 49.2261 33.3587C49.2261 30.7109 47.9717 28.6718 45.5855 28.6718C43.1992 28.6718 41.9449 30.7109 41.9449 33.3587C41.9449 35.9457 43.1992 38.0457 45.5855 38.0457Z" fill="white"/>
</svg>
